<svg width="25" height="34" viewBox="0 0 25 34" fill="none" xmlns="http://www.w3.org/2000/svg">
<path d="M0.998959 12.7562C0.713295 13.0561 0.724873 13.5309 1.02482 13.8165C1.32477 14.1022 1.7995 14.0906 2.08517 13.7907L0.998959 12.7562ZM12.7995 2.54068C13.0851 2.24073 13.0735 1.766 12.7736 1.48033C12.4736 1.19467 11.9989 1.20625 11.7132 1.5062L12.7995 2.54068ZM12.7976 1.5062C12.5119 1.20625 12.0372 1.19467 11.7372 1.48033C11.4373 1.766 11.4257 2.24073 11.7114 2.54068L12.7976 1.5062ZM22.4256 13.7907C22.7113 14.0906 23.186 14.1022 23.486 13.8165C23.7859 13.5309 23.7975 13.0561 23.5119 12.7562L22.4256 13.7907ZM13.0057 2.02344C13.0057 1.60922 12.6699 1.27344 12.2557 1.27344C11.8415 1.27344 11.5057 1.60922 11.5057 2.02344L13.0057 2.02344ZM11.5057 32.0234C11.5057 32.4377 11.8415 32.7734 12.2557 32.7734C12.6699 32.7734 13.0057 32.4377 13.0057 32.0234H11.5057ZM2.08517 13.7907L12.7995 2.54068L11.7132 1.5062L0.998959 12.7562L2.08517 13.7907ZM11.7114 2.54068L22.4256 13.7907L23.5119 12.7562L12.7976 1.5062L11.7114 2.54068ZM11.5057 2.02344L11.5057 32.0234H13.0057L13.0057 2.02344L11.5057 2.02344Z" fill="#31542C"/>
</svg>
